<?xml version="1.0" encoding="UTF-8"?>
<svg xmlns="http://www.w3.org/2000/svg" xmlns:xlink="http://www.w3.org/1999/xlink" width="50px" height="50px" viewBox="0 0 50 50" version="1.1">
<g id="surface1">
<path style=" stroke:none;fill-rule:nonzero;fill:rgb(2.352941%,35.294119%,49.803922%);fill-opacity:1;" d="M 42.351562 19.160156 C 44.175781 19.859375 45.296875 21.605469 46.207031 23.273438 C 47.609375 26.589844 47.164062 29.683594 46.1875 33.050781 C 44.171875 32.679688 44.171875 32.679688 43.21875 32.203125 C 43.21875 31.503906 43.21875 30.804688 43.21875 30.085938 C 42.519531 29.945312 41.820312 29.804688 41.101562 29.660156 C 41.101562 29.941406 41.101562 30.21875 41.101562 30.507812 C 40.261719 30.230469 39.421875 29.949219 38.558594 29.660156 C 38.558594 29.382812 38.558594 29.101562 38.558594 28.8125 C 38.332031 28.960938 38.105469 29.109375 37.871094 29.265625 C 36.558594 29.78125 35.695312 29.472656 34.320312 29.238281 C 33.902344 29.515625 33.484375 29.796875 33.050781 30.085938 C 31.964844 30.003906 31.964844 30.003906 30.933594 29.660156 C 30.511719 29.03125 30.511719 29.03125 30.085938 28.390625 C 29.804688 29.230469 29.527344 30.066406 29.238281 30.933594 C 27.976562 30.457031 26.976562 29.992188 25.847656 29.238281 C 25.707031 30.078125 25.566406 30.914062 25.421875 31.78125 C 22.042969 32.804688 22.042969 32.804688 20.445312 32.152344 C 20.128906 31.886719 19.816406 31.625 19.492188 31.355469 C 19.097656 31.050781 18.703125 30.746094 18.300781 30.429688 C 17.992188 30.175781 17.6875 29.921875 17.371094 29.660156 C 17.582031 31.128906 17.582031 31.128906 17.796875 32.628906 C 15.394531 33.144531 13.035156 33.089844 10.59375 33.050781 C 10.3125 32.351562 10.035156 31.652344 9.746094 30.933594 C 8.765625 30.792969 7.789062 30.652344 6.78125 30.507812 C 6.917969 30.929688 7.058594 31.347656 7.203125 31.78125 C 5.269531 31.550781 3.824219 31.019531 2.117188 30.085938 C 1.804688 27.640625 2.363281 26.238281 3.792969 24.242188 C 5.367188 22.542969 7.304688 21.441406 9.320312 20.339844 C 9.617188 20.171875 9.910156 20.007812 10.210938 19.835938 C 11.457031 19.304688 12.652344 19.441406 13.984375 19.492188 C 13.777344 20.652344 13.527344 21.695312 13.109375 22.800781 C 12.621094 24.464844 12.652344 25.8125 12.710938 27.542969 C 12.753906 27.265625 12.792969 26.988281 12.835938 26.703125 C 13.242188 24.34375 13.71875 22.667969 15.253906 20.761719 C 15.53125 20.371094 15.53125 20.371094 15.808594 19.96875 C 16.976562 19.191406 18.136719 19.414062 19.492188 19.492188 C 19.703125 19.910156 19.703125 19.910156 19.914062 20.339844 C 20.316406 20.25 20.71875 20.164062 21.132812 20.074219 C 21.570312 20.023438 22.007812 19.96875 22.457031 19.914062 C 22.738281 20.195312 23.015625 20.472656 23.304688 20.761719 C 24.628906 21.257812 25.96875 21.644531 27.332031 22.035156 C 27.820312 22.171875 28.308594 22.3125 28.8125 22.457031 C 29.257812 22.5625 29.703125 22.667969 30.164062 22.777344 C 31.722656 23.46875 32.226562 24.386719 33.050781 25.847656 C 33.050781 25.289062 33.050781 24.730469 33.050781 24.152344 C 34.03125 24.152344 35.007812 24.152344 36.015625 24.152344 C 36.4375 24.992188 36.4375 24.992188 36.863281 25.847656 C 36.71875 25.011719 36.71875 25.011719 36.441406 24.152344 C 36.019531 23.941406 36.019531 23.941406 35.59375 23.730469 C 35.59375 23.449219 35.59375 23.167969 35.59375 22.882812 C 36.433594 22.601562 37.269531 22.320312 38.136719 22.035156 C 38.695312 22.59375 39.253906 23.152344 39.832031 23.730469 C 39.796875 23.273438 39.761719 22.820312 39.722656 22.351562 C 39.832031 20.761719 39.832031 20.761719 40.570312 19.703125 C 41.527344 19.066406 41.527344 19.066406 42.351562 19.160156 Z M 20.3125 23.304688 C 19.847656 23.660156 19.847656 23.660156 19.371094 24.019531 C 19.132812 24.203125 18.890625 24.386719 18.644531 24.578125 C 19.046875 25.0625 19.453125 25.546875 19.863281 26.03125 C 20.089844 26.304688 20.316406 26.574219 20.546875 26.851562 C 21.152344 27.589844 21.152344 27.589844 22.035156 27.964844 C 22.171875 26.007812 22.3125 24.050781 22.457031 22.035156 C 21.628906 22.035156 20.941406 22.828125 20.3125 23.304688 Z M 27.964844 23.730469 C 27.242188 24.550781 27.242188 24.550781 26.695312 25.421875 C 28.003906 26.683594 28.003906 26.683594 29.660156 27.117188 C 29.519531 26 29.382812 24.882812 29.238281 23.730469 C 28.816406 23.730469 28.398438 23.730469 27.964844 23.730469 Z M 43.21875 25 C 43.644531 26.269531 43.644531 26.269531 43.644531 26.269531 Z M 7.628906 25.421875 C 8.050781 26.269531 8.050781 26.269531 8.050781 26.269531 Z M 13.136719 29.660156 C 13.558594 30.507812 13.558594 30.507812 13.558594 30.507812 Z M 13.136719 29.660156 "/>
<path style=" stroke:none;fill-rule:nonzero;fill:rgb(3.921569%,43.137255%,60.000002%);fill-opacity:1;" d="M 42.351562 19.160156 C 44.175781 19.859375 45.296875 21.605469 46.207031 23.273438 C 47.609375 26.589844 47.164062 29.683594 46.1875 33.050781 C 44.171875 32.679688 44.171875 32.679688 43.21875 32.203125 C 43.21875 31.503906 43.21875 30.804688 43.21875 30.085938 C 42.519531 29.945312 41.820312 29.804688 41.101562 29.660156 C 41.101562 29.941406 41.101562 30.21875 41.101562 30.507812 C 40.261719 30.230469 39.421875 29.949219 38.558594 29.660156 C 38.558594 29.382812 38.558594 29.101562 38.558594 28.8125 C 38.332031 28.960938 38.105469 29.109375 37.871094 29.265625 C 36.558594 29.78125 35.695312 29.472656 34.320312 29.238281 C 33.902344 29.515625 33.484375 29.796875 33.050781 30.085938 C 31.964844 30.003906 31.964844 30.003906 30.933594 29.660156 C 30.652344 29.242188 30.371094 28.820312 30.085938 28.390625 C 29.804688 29.230469 29.527344 30.066406 29.238281 30.933594 C 27.222656 30.136719 27.222656 30.136719 26.269531 29.660156 C 26.589844 28.417969 26.589844 28.417969 27.117188 27.117188 C 27.964844 26.722656 27.964844 26.722656 28.8125 26.695312 C 29.09375 26.835938 29.371094 26.972656 29.660156 27.117188 C 29.519531 26 29.382812 24.882812 29.238281 23.730469 C 28.539062 23.867188 27.839844 24.007812 27.117188 24.152344 C 27.398438 23.59375 27.679688 23.035156 27.964844 22.457031 C 30.703125 22.714844 30.703125 22.714844 31.699219 23.4375 C 32.242188 24.210938 32.664062 24.984375 33.050781 25.847656 C 33.050781 25.289062 33.050781 24.730469 33.050781 24.152344 C 34.03125 24.152344 35.007812 24.152344 36.015625 24.152344 C 36.296875 24.710938 36.578125 25.269531 36.863281 25.847656 C 36.71875 25.011719 36.71875 25.011719 36.441406 24.152344 C 36.160156 24.011719 35.882812 23.871094 35.59375 23.730469 C 35.59375 23.449219 35.59375 23.167969 35.59375 22.882812 C 36.433594 22.601562 37.269531 22.320312 38.136719 22.035156 C 38.695312 22.59375 39.253906 23.152344 39.832031 23.730469 C 39.796875 23.273438 39.761719 22.820312 39.722656 22.351562 C 39.832031 20.761719 39.832031 20.761719 40.570312 19.703125 C 41.527344 19.066406 41.527344 19.066406 42.351562 19.160156 Z M 43.21875 25 C 43.644531 26.269531 43.644531 26.269531 43.644531 26.269531 Z M 43.21875 25 "/>
<path style=" stroke:none;fill-rule:nonzero;fill:rgb(3.137255%,41.568628%,59.215689%);fill-opacity:1;" d="M 19.492188 19.492188 C 19.632812 19.769531 19.769531 20.050781 19.914062 20.339844 C 20.316406 20.25 20.71875 20.164062 21.132812 20.074219 C 21.789062 19.996094 21.789062 19.996094 22.457031 19.914062 C 22.738281 20.195312 23.015625 20.472656 23.304688 20.761719 C 24.839844 21.34375 26.351562 21.75 27.964844 22.035156 C 27.6875 23.152344 27.40625 24.269531 27.117188 25.421875 C 27.539062 25.703125 27.957031 25.984375 28.390625 26.269531 C 28.390625 26.550781 28.390625 26.832031 28.390625 27.117188 C 27.96875 27.117188 27.550781 27.117188 27.117188 27.117188 C 27.003906 27.433594 26.890625 27.746094 26.773438 28.070312 C 26.296875 29.179688 25.757812 30 25 30.933594 C 24.71875 30.371094 24.441406 29.8125 24.152344 29.238281 C 23.453125 29.515625 22.753906 29.796875 22.035156 30.085938 C 22.035156 29.664062 22.035156 29.246094 22.035156 28.8125 C 21.761719 28.761719 21.492188 28.707031 21.214844 28.65625 C 20.78125 28.523438 20.78125 28.523438 20.339844 28.390625 C 20.199219 28.109375 20.058594 27.832031 19.914062 27.542969 C 18.84375 27.265625 18.84375 27.265625 17.796875 27.117188 C 17.796875 27.398438 17.796875 27.679688 17.796875 27.964844 C 16.320312 27.691406 15.242188 27.074219 13.984375 26.269531 C 13.984375 26.691406 13.984375 27.109375 13.984375 27.542969 C 14.402344 27.683594 14.820312 27.820312 15.253906 27.964844 C 14.554688 28.105469 13.855469 28.246094 13.136719 28.390625 C 12.851562 24.984375 13.613281 22.867188 15.597656 20.128906 C 16.90625 19.230469 17.945312 19.371094 19.492188 19.492188 Z M 20.3125 23.304688 C 19.847656 23.660156 19.847656 23.660156 19.371094 24.019531 C 19.132812 24.203125 18.890625 24.386719 18.644531 24.578125 C 19.046875 25.0625 19.453125 25.546875 19.863281 26.03125 C 20.089844 26.304688 20.316406 26.574219 20.546875 26.851562 C 21.152344 27.589844 21.152344 27.589844 22.035156 27.964844 C 22.171875 26.007812 22.3125 24.050781 22.457031 22.035156 C 21.628906 22.035156 20.941406 22.828125 20.3125 23.304688 Z M 20.3125 23.304688 "/>
<path style=" stroke:none;fill-rule:nonzero;fill:rgb(0.784314%,45.882353%,60.000002%);fill-opacity:1;" d="M 13.984375 19.492188 C 13.78125 20.632812 13.546875 21.644531 13.109375 22.722656 C 12.542969 24.753906 12.644531 26.71875 12.710938 28.8125 C 10.984375 28.480469 9.316406 28.039062 7.628906 27.542969 C 7.90625 27.683594 8.1875 27.820312 8.472656 27.964844 C 8.613281 28.386719 8.753906 28.804688 8.898438 29.238281 C 9.738281 29.378906 10.578125 29.515625 11.441406 29.660156 C 11.441406 29.800781 11.441406 29.941406 11.441406 30.085938 C 8.097656 30.214844 8.097656 30.214844 6.78125 29.238281 C 6.25 28.335938 6.25 28.335938 5.933594 27.542969 C 5.933594 28.101562 5.933594 28.660156 5.933594 29.238281 C 4.8125 29.238281 3.695312 29.238281 2.542969 29.238281 C 2.199219 28.050781 2.03125 27.355469 2.46875 26.183594 C 4.28125 23.425781 6.449219 21.90625 9.320312 20.339844 C 9.617188 20.171875 9.910156 20.007812 10.210938 19.835938 C 11.457031 19.304688 12.652344 19.441406 13.984375 19.492188 Z M 7.628906 25.421875 C 8.050781 26.269531 8.050781 26.269531 8.050781 26.269531 Z M 7.628906 25.421875 "/>
<path style=" stroke:none;fill-rule:nonzero;fill:rgb(5.882353%,64.313728%,78.431374%);fill-opacity:1;" d="M 19.492188 19.492188 C 19.632812 19.769531 19.769531 20.050781 19.914062 20.339844 C 20.316406 20.25 20.71875 20.164062 21.132812 20.074219 C 21.789062 19.996094 21.789062 19.996094 22.457031 19.914062 C 22.738281 20.195312 23.015625 20.472656 23.304688 20.761719 C 24.144531 21.066406 24.992188 21.351562 25.847656 21.609375 C 25.847656 22.308594 25.847656 23.007812 25.847656 23.730469 C 25.007812 24.148438 25.007812 24.148438 24.152344 24.578125 C 24.152344 24.296875 24.152344 24.015625 24.152344 23.730469 C 23.453125 23.730469 22.753906 23.730469 22.035156 23.730469 C 22.035156 23.308594 22.035156 22.890625 22.035156 22.457031 C 21.054688 23.15625 20.078125 23.855469 19.066406 24.578125 C 19.347656 25.136719 19.628906 25.695312 19.914062 26.269531 C 18.796875 26.269531 17.679688 26.269531 16.527344 26.269531 C 16.527344 25.992188 16.527344 25.710938 16.527344 25.421875 C 15.828125 25.285156 15.128906 25.144531 14.40625 25 C 14.6875 24.582031 14.964844 24.160156 15.253906 23.730469 C 14.695312 23.589844 14.136719 23.449219 13.558594 23.304688 C 16.140625 19.300781 16.140625 19.300781 19.492188 19.492188 Z M 19.492188 19.492188 "/>
<path style=" stroke:none;fill-rule:nonzero;fill:rgb(0.784314%,51.372552%,62.352943%);fill-opacity:1;" d="M 13.984375 19.492188 C 13.699219 21.105469 13.25 22.605469 12.710938 24.152344 C 12.152344 23.871094 11.59375 23.59375 11.015625 23.304688 C 11.015625 23.027344 11.015625 22.746094 11.015625 22.457031 C 10.457031 22.457031 9.898438 22.457031 9.320312 22.457031 C 9.460938 23.15625 9.601562 23.855469 9.746094 24.578125 C 10.164062 24.714844 10.585938 24.855469 11.015625 25 C 11.015625 25.28125 11.015625 25.558594 11.015625 25.847656 C 7.734375 25.53125 7.734375 25.53125 6.78125 24.578125 C 5.691406 24.300781 5.691406 24.300781 4.660156 24.152344 C 5.238281 22.417969 6.378906 21.964844 7.890625 21.105469 C 8.148438 20.949219 8.402344 20.796875 8.667969 20.632812 C 10.496094 19.582031 11.828125 19.324219 13.984375 19.492188 Z M 13.984375 19.492188 "/>
<path style=" stroke:none;fill-rule:nonzero;fill:rgb(5.098039%,60.784316%,75.686276%);fill-opacity:1;" d="M 42.351562 19.15625 C 43.410156 19.566406 43.855469 20.046875 44.570312 20.921875 C 44.785156 21.179688 45.003906 21.433594 45.226562 21.699219 C 45.761719 22.457031 45.761719 22.457031 46.1875 23.730469 C 45.578125 24.601562 45.578125 24.601562 44.492188 25.421875 C 43.1875 25.449219 41.957031 25.238281 40.679688 25 C 40.539062 25 40.398438 25 40.253906 25 C 39.582031 21.160156 39.582031 21.160156 40.546875 19.625 C 41.527344 19.066406 41.527344 19.066406 42.351562 19.15625 Z M 42.351562 19.15625 "/>
<path style=" stroke:none;fill-rule:nonzero;fill:rgb(1.960784%,34.117648%,48.235294%);fill-opacity:1;" d="M 5.933594 27.542969 C 6.210938 27.683594 6.492188 27.820312 6.78125 27.964844 C 6.640625 28.246094 6.5 28.527344 6.355469 28.8125 C 7.507812 29.199219 8.664062 29.550781 9.824219 29.898438 C 10.207031 30.011719 10.589844 30.128906 10.980469 30.246094 C 11.273438 30.332031 11.5625 30.417969 11.863281 30.507812 C 11.863281 30.789062 11.863281 31.066406 11.863281 31.355469 C 12.914062 31.566406 12.914062 31.566406 13.984375 31.78125 C 13.984375 32.058594 13.984375 32.339844 13.984375 32.628906 C 12.835938 33.199219 11.859375 33.078125 10.59375 33.050781 C 10.3125 32.351562 10.035156 31.652344 9.746094 30.933594 C 8.765625 30.792969 7.789062 30.652344 6.78125 30.507812 C 6.917969 30.929688 7.058594 31.347656 7.203125 31.78125 C 5.269531 31.550781 3.824219 31.019531 2.117188 30.085938 C 2.257812 29.664062 2.398438 29.246094 2.542969 28.8125 C 3.660156 28.953125 4.78125 29.09375 5.933594 29.238281 C 5.933594 28.679688 5.933594 28.117188 5.933594 27.542969 Z M 5.933594 27.542969 "/>
<path style=" stroke:none;fill-rule:nonzero;fill:rgb(1.568628%,32.156864%,46.27451%);fill-opacity:1;" d="M 18.21875 27.117188 C 19.253906 27.277344 19.253906 27.277344 20.339844 27.542969 C 20.480469 27.820312 20.617188 28.101562 20.761719 28.390625 C 21.183594 28.53125 21.601562 28.667969 22.035156 28.8125 C 22.035156 29.234375 22.035156 29.652344 22.035156 30.085938 C 22.734375 29.804688 23.433594 29.527344 24.152344 29.238281 C 25.421875 30.828125 25.421875 30.828125 25.421875 31.78125 C 22.046875 32.800781 22.046875 32.800781 20.417969 32.152344 C 19.496094 31.359375 18.625 30.550781 17.796875 29.660156 C 18.214844 29.382812 18.636719 29.101562 19.066406 28.8125 C 18.789062 28.671875 18.507812 28.535156 18.21875 28.390625 C 18.21875 27.96875 18.21875 27.550781 18.21875 27.117188 Z M 18.21875 27.117188 "/>
<path style=" stroke:none;fill-rule:nonzero;fill:rgb(6.27451%,54.509807%,73.333335%);fill-opacity:1;" d="M 19.066406 19.492188 C 19.347656 19.769531 19.628906 20.050781 19.914062 20.339844 C 20.335938 20.269531 20.753906 20.199219 21.1875 20.128906 C 21.605469 20.058594 22.027344 19.988281 22.457031 19.914062 C 22.738281 20.195312 23.015625 20.472656 23.304688 20.761719 C 24.144531 21.066406 24.992188 21.351562 25.847656 21.609375 C 25.847656 22.308594 25.847656 23.007812 25.847656 23.730469 C 25.007812 24.148438 25.007812 24.148438 24.152344 24.578125 C 24.152344 24.296875 24.152344 24.015625 24.152344 23.730469 C 23.453125 23.730469 22.753906 23.730469 22.035156 23.730469 C 22.035156 23.308594 22.035156 22.890625 22.035156 22.457031 C 21.335938 22.738281 20.636719 23.015625 19.914062 23.304688 C 19.28125 21.875 19.066406 21.101562 19.066406 19.492188 Z M 19.066406 19.492188 "/>
<path style=" stroke:none;fill-rule:nonzero;fill:rgb(12.54902%,60.000002%,76.078433%);fill-opacity:1;" d="M 15.253906 23.304688 C 15.535156 23.585938 15.8125 23.863281 16.101562 24.152344 C 15.820312 24.433594 15.542969 24.710938 15.253906 25 C 15.671875 25.140625 16.09375 25.28125 16.527344 25.421875 C 16.527344 25.703125 16.527344 25.984375 16.527344 26.269531 C 16.78125 26.25 17.035156 26.230469 17.300781 26.210938 C 20.085938 26.085938 20.085938 26.085938 21.425781 27.066406 C 22.035156 27.964844 22.035156 27.964844 22.035156 28.8125 C 21.214844 28.65625 21.214844 28.65625 20.339844 28.390625 C 20.199219 28.109375 20.058594 27.832031 19.914062 27.542969 C 18.84375 27.265625 18.84375 27.265625 17.796875 27.117188 C 17.796875 27.398438 17.796875 27.679688 17.796875 27.964844 C 16.320312 27.691406 15.242188 27.074219 13.984375 26.269531 C 13.984375 26.691406 13.984375 27.109375 13.984375 27.542969 C 14.402344 27.683594 14.820312 27.820312 15.253906 27.964844 C 14.554688 28.105469 13.855469 28.246094 13.136719 28.390625 C 13.125 27.773438 13.117188 27.152344 13.109375 26.535156 C 13.105469 26.191406 13.097656 25.847656 13.09375 25.492188 C 13.136719 24.578125 13.136719 24.578125 13.558594 23.730469 C 14.378906 23.410156 14.378906 23.410156 15.253906 23.304688 Z M 15.253906 23.304688 "/>
<path style=" stroke:none;fill-rule:nonzero;fill:rgb(2.745098%,39.607844%,55.686277%);fill-opacity:1;" d="M 19.914062 29.238281 C 19.078125 29.378906 18.238281 29.515625 17.371094 29.660156 C 17.511719 30.640625 17.652344 31.617188 17.796875 32.628906 C 15.414062 33.105469 15.414062 33.105469 13.984375 32.628906 C 13.984375 32.347656 13.984375 32.066406 13.984375 31.78125 C 13.421875 31.640625 12.863281 31.5 12.289062 31.355469 C 12.289062 31.078125 12.289062 30.796875 12.289062 30.507812 C 12.707031 30.507812 13.128906 30.507812 13.558594 30.507812 C 13.558594 30.230469 13.558594 29.949219 13.558594 29.660156 C 13.980469 29.660156 14.398438 29.660156 14.832031 29.660156 C 14.832031 29.382812 14.832031 29.101562 14.832031 28.8125 C 18.460938 28.207031 18.460938 28.207031 19.914062 29.238281 Z M 19.914062 29.238281 "/>
<path style=" stroke:none;fill-rule:nonzero;fill:rgb(2.352941%,37.64706%,52.941179%);fill-opacity:1;" d="M 38.1875 22.351562 C 38.984375 22.882812 38.984375 22.882812 39.832031 23.730469 C 40 24.570312 40.144531 25.417969 40.253906 26.269531 C 41.09375 26.269531 41.933594 26.269531 42.796875 26.269531 C 42.378906 26.480469 42.378906 26.480469 41.949219 26.695312 C 41.949219 26.972656 41.949219 27.253906 41.949219 27.542969 C 41.109375 27.542969 40.269531 27.542969 39.40625 27.542969 C 39.40625 27.261719 39.40625 26.984375 39.40625 26.695312 C 38.566406 26.972656 37.730469 27.253906 36.863281 27.542969 C 37.003906 27.121094 37.144531 26.703125 37.289062 26.269531 C 36.976562 25.152344 36.976562 25.152344 36.441406 24.152344 C 36.160156 24.011719 35.882812 23.871094 35.59375 23.730469 C 35.59375 23.449219 35.59375 23.167969 35.59375 22.882812 C 37.046875 21.949219 37.046875 21.949219 38.1875 22.351562 Z M 38.1875 22.351562 "/>
<path style=" stroke:none;fill-rule:nonzero;fill:rgb(3.137255%,36.862746%,51.764709%);fill-opacity:1;" d="M 29.238281 25 C 29.9375 25 30.636719 25 31.355469 25 C 31.355469 25.417969 31.355469 25.839844 31.355469 26.269531 C 31.078125 26.269531 30.796875 26.269531 30.507812 26.269531 C 30.648438 26.832031 30.789062 27.390625 30.933594 27.964844 C 30.652344 27.964844 30.371094 27.964844 30.085938 27.964844 C 29.804688 28.945312 29.527344 29.921875 29.238281 30.933594 C 27.222656 30.136719 27.222656 30.136719 26.269531 29.660156 C 26.589844 28.417969 26.589844 28.417969 27.117188 27.117188 C 27.964844 26.722656 27.964844 26.722656 28.8125 26.695312 C 29.09375 26.835938 29.371094 26.972656 29.660156 27.117188 C 29.519531 26.417969 29.382812 25.71875 29.238281 25 Z M 29.238281 25 "/>
<path style=" stroke:none;fill-rule:nonzero;fill:rgb(0.392157%,25.490198%,37.254903%);fill-opacity:1;" d="M 40.679688 24.578125 C 41.515625 24.578125 42.355469 24.578125 43.21875 24.578125 C 43.273438 24.839844 43.324219 25.101562 43.378906 25.371094 C 43.589844 26.351562 43.589844 26.351562 44.492188 27.117188 C 44.082031 27.3125 43.671875 27.503906 43.246094 27.703125 C 41.917969 28.246094 41.917969 28.246094 41.527344 29.238281 C 40.542969 29.410156 39.550781 29.550781 38.558594 29.660156 C 38.699219 29.242188 38.839844 28.820312 38.984375 28.390625 C 39.402344 28.390625 39.820312 28.390625 40.253906 28.390625 C 40.253906 28.109375 40.253906 27.832031 40.253906 27.542969 C 40.8125 27.542969 41.371094 27.542969 41.949219 27.542969 C 41.949219 27.261719 41.949219 26.984375 41.949219 26.695312 C 41.390625 26.554688 40.832031 26.414062 40.253906 26.269531 C 40.394531 25.710938 40.535156 25.152344 40.679688 24.578125 Z M 40.679688 24.578125 "/>
<path style=" stroke:none;fill-rule:nonzero;fill:rgb(2.745098%,39.215687%,53.333336%);fill-opacity:1;" d="M 42.386719 19.109375 C 43.21875 19.492188 43.21875 19.492188 43.664062 20.367188 C 43.761719 20.714844 43.859375 21.066406 43.960938 21.425781 C 44.066406 21.773438 44.167969 22.125 44.273438 22.484375 C 44.34375 22.757812 44.417969 23.027344 44.492188 23.304688 C 43.933594 23.445312 43.371094 23.585938 42.796875 23.730469 C 42.796875 23.449219 42.796875 23.167969 42.796875 22.882812 C 42.386719 22.769531 41.976562 22.652344 41.550781 22.535156 C 41.125 22.371094 40.695312 22.203125 40.253906 22.035156 C 40.113281 21.613281 39.972656 21.195312 39.832031 20.761719 C 41.277344 19.054688 41.277344 19.054688 42.386719 19.109375 Z M 42.386719 19.109375 "/>
<path style=" stroke:none;fill-rule:nonzero;fill:rgb(0.392157%,38.82353%,56.862748%);fill-opacity:1;" d="M 35.167969 26.269531 C 36.007812 26.269531 36.847656 26.269531 37.710938 26.269531 C 37.292969 26.480469 37.292969 26.480469 36.863281 26.695312 C 37.285156 26.695312 37.703125 26.695312 38.136719 26.695312 C 38.554688 26.695312 38.972656 26.695312 39.40625 26.695312 C 39.40625 26.972656 39.40625 27.253906 39.40625 27.542969 C 39.6875 27.542969 39.964844 27.542969 40.253906 27.542969 C 40.253906 27.820312 40.253906 28.101562 40.253906 28.390625 C 39.726562 28.617188 39.195312 28.835938 38.664062 29.050781 C 38.371094 29.175781 38.074219 29.296875 37.769531 29.425781 C 36.738281 29.695312 36.167969 29.578125 35.167969 29.238281 C 35.167969 28.25 35.167969 27.261719 35.167969 26.269531 Z M 35.167969 26.269531 "/>
<path style=" stroke:none;fill-rule:nonzero;fill:rgb(16.470589%,64.705884%,83.137256%);fill-opacity:1;" d="M 26.269531 22.035156 C 26.832031 22.035156 27.390625 22.035156 27.964844 22.035156 C 27.222656 24.894531 27.222656 24.894531 26.269531 25.847656 C 26.132812 25.566406 25.992188 25.289062 25.847656 25 C 25.707031 25.28125 25.566406 25.558594 25.421875 25.847656 C 24.375 25.429688 24.375 25.429688 23.304688 25 C 23.164062 25.28125 23.027344 25.558594 22.882812 25.847656 C 22.601562 25.707031 22.320312 25.566406 22.035156 25.421875 C 22.035156 24.863281 22.035156 24.304688 22.035156 23.730469 C 22.734375 23.730469 23.433594 23.730469 24.152344 23.730469 C 24.152344 24.007812 24.152344 24.289062 24.152344 24.578125 C 25.429688 23.726562 25.691406 23.375 26.269531 22.035156 Z M 26.269531 22.035156 "/>
<path style=" stroke:none;fill-rule:nonzero;fill:rgb(3.137255%,40.784314%,56.078434%);fill-opacity:1;" d="M 19.492188 23.304688 C 19.402344 23.558594 19.316406 23.8125 19.226562 24.074219 C 18.9375 25.121094 18.9375 25.121094 19.914062 26.269531 C 18.796875 26.269531 17.679688 26.269531 16.527344 26.269531 C 16.527344 25.992188 16.527344 25.710938 16.527344 25.421875 C 15.828125 25.285156 15.128906 25.144531 14.40625 25 C 16.242188 23.589844 17.148438 23.253906 19.492188 23.304688 Z M 19.492188 23.304688 "/>
<path style=" stroke:none;fill-rule:nonzero;fill:rgb(0.392157%,25.882354%,37.64706%);fill-opacity:1;" d="M 7.203125 30.085938 C 7.738281 30.074219 8.269531 30.066406 8.820312 30.058594 C 9.117188 30.054688 9.417969 30.046875 9.726562 30.042969 C 10.59375 30.085938 10.59375 30.085938 11.863281 30.507812 C 11.863281 30.789062 11.863281 31.066406 11.863281 31.355469 C 12.5625 31.496094 13.261719 31.636719 13.984375 31.78125 C 13.984375 32.058594 13.984375 32.339844 13.984375 32.628906 C 12.835938 33.199219 11.859375 33.078125 10.59375 33.050781 C 10.3125 32.351562 10.035156 31.652344 9.746094 30.933594 C 9.046875 30.933594 8.347656 30.933594 7.628906 30.933594 C 7.488281 30.652344 7.347656 30.371094 7.203125 30.085938 Z M 7.203125 30.085938 "/>
<path style=" stroke:none;fill-rule:nonzero;fill:rgb(7.058824%,44.705883%,61.56863%);fill-opacity:1;" d="M 19.914062 29.238281 C 19.546875 29.289062 19.179688 29.34375 18.804688 29.394531 C 17.402344 29.65625 16.148438 29.957031 14.832031 30.507812 C 14.691406 30.929688 14.550781 31.347656 14.40625 31.78125 C 13.707031 31.640625 13.007812 31.5 12.289062 31.355469 C 12.289062 31.078125 12.289062 30.796875 12.289062 30.507812 C 12.707031 30.507812 13.128906 30.507812 13.558594 30.507812 C 13.558594 30.230469 13.558594 29.949219 13.558594 29.660156 C 13.980469 29.660156 14.398438 29.660156 14.832031 29.660156 C 14.832031 29.382812 14.832031 29.101562 14.832031 28.8125 C 18.460938 28.207031 18.460938 28.207031 19.914062 29.238281 Z M 19.914062 29.238281 "/>
<path style=" stroke:none;fill-rule:nonzero;fill:rgb(14.901961%,73.725492%,80.000001%);fill-opacity:1;" d="M 8.050781 22.882812 C 8.609375 23.160156 9.167969 23.441406 9.746094 23.730469 C 9.746094 24.007812 9.746094 24.289062 9.746094 24.578125 C 10.164062 24.714844 10.585938 24.855469 11.015625 25 C 11.015625 25.28125 11.015625 25.558594 11.015625 25.847656 C 7.734375 25.53125 7.734375 25.53125 6.78125 24.578125 C 5.691406 24.300781 5.691406 24.300781 4.660156 24.152344 C 4.660156 23.871094 4.660156 23.59375 4.660156 23.304688 C 5.78125 23.445312 6.898438 23.585938 8.050781 23.730469 C 8.050781 23.449219 8.050781 23.167969 8.050781 22.882812 Z M 8.050781 22.882812 "/>
<path style=" stroke:none;fill-rule:nonzero;fill:rgb(0.784314%,25.098041%,36.078432%);fill-opacity:1;" d="M 43.21875 30.507812 C 44.339844 30.507812 45.457031 30.507812 46.609375 30.507812 C 46.46875 31.347656 46.332031 32.1875 46.1875 33.050781 C 44.171875 32.679688 44.171875 32.679688 43.21875 32.203125 C 43.21875 31.644531 43.21875 31.085938 43.21875 30.507812 Z M 43.21875 30.507812 "/>
<path style=" stroke:none;fill-rule:nonzero;fill:rgb(6.666667%,52.549022%,69.411767%);fill-opacity:1;" d="M 6.355469 26.269531 C 7.335938 26.269531 8.3125 26.269531 9.320312 26.269531 C 9.320312 26.550781 9.320312 26.832031 9.320312 27.117188 C 8.761719 27.257812 8.203125 27.398438 7.628906 27.542969 C 7.90625 27.683594 8.1875 27.820312 8.472656 27.964844 C 8.613281 28.386719 8.753906 28.804688 8.898438 29.238281 C 10.15625 29.445312 10.15625 29.445312 11.441406 29.660156 C 11.441406 29.800781 11.441406 29.941406 11.441406 30.085938 C 8.113281 30.210938 8.113281 30.210938 6.78125 29.238281 C 6.355469 27.964844 6.355469 27.964844 6.355469 26.269531 Z M 6.355469 26.269531 "/>
<path style=" stroke:none;fill-rule:nonzero;fill:rgb(0.392157%,27.843139%,40.392157%);fill-opacity:1;" d="M 44.066406 27.542969 C 44.90625 27.542969 45.746094 27.542969 46.609375 27.542969 C 46.75 28.242188 46.890625 28.941406 47.035156 29.660156 C 46.335938 29.800781 45.636719 29.941406 44.914062 30.085938 C 44.914062 29.804688 44.914062 29.527344 44.914062 29.238281 C 44.496094 29.238281 44.078125 29.238281 43.644531 29.238281 C 43.785156 28.679688 43.921875 28.117188 44.066406 27.542969 Z M 44.066406 27.542969 "/>
<path style=" stroke:none;fill-rule:nonzero;fill:rgb(0.784314%,30.588236%,43.921569%);fill-opacity:1;" d="M 29.238281 25 C 29.9375 25 30.636719 25 31.355469 25 C 31.355469 25.417969 31.355469 25.839844 31.355469 26.269531 C 31.078125 26.269531 30.796875 26.269531 30.507812 26.269531 C 30.648438 26.832031 30.789062 27.390625 30.933594 27.964844 C 30.652344 27.964844 30.371094 27.964844 30.085938 27.964844 C 29.945312 28.246094 29.804688 28.527344 29.660156 28.8125 C 28.960938 28.8125 28.261719 28.8125 27.542969 28.8125 C 27.820312 28.671875 28.101562 28.535156 28.390625 28.390625 C 28.667969 27.53125 28.667969 27.53125 28.8125 26.695312 C 29.09375 26.835938 29.371094 26.972656 29.660156 27.117188 C 29.519531 26.417969 29.382812 25.71875 29.238281 25 Z M 29.238281 25 "/>
<path style=" stroke:none;fill-rule:nonzero;fill:rgb(2.745098%,38.039216%,52.941179%);fill-opacity:1;" d="M 13.984375 26.269531 C 15.289062 26.777344 16.550781 27.320312 17.796875 27.964844 C 17.9375 27.6875 18.078125 27.40625 18.21875 27.117188 C 18.21875 27.679688 18.21875 28.238281 18.21875 28.8125 C 16.542969 28.8125 14.863281 28.8125 13.136719 28.8125 C 13.554688 28.535156 13.972656 28.253906 14.40625 27.964844 C 14.265625 27.40625 14.128906 26.847656 13.984375 26.269531 Z M 13.984375 26.269531 "/>
<path style=" stroke:none;fill-rule:nonzero;fill:rgb(1.960784%,47.843137%,67.843139%);fill-opacity:1;" d="M 25.847656 24.578125 C 25.988281 24.578125 26.128906 24.578125 26.269531 24.578125 C 26.269531 25.277344 26.269531 25.972656 26.269531 26.695312 C 25.152344 26.695312 24.035156 26.695312 22.882812 26.695312 C 22.882812 27.113281 22.882812 27.535156 22.882812 27.964844 C 22.601562 27.964844 22.320312 27.964844 22.035156 27.964844 C 22.035156 27.128906 22.035156 26.289062 22.035156 25.421875 C 23.015625 25.160156 23.015625 25.160156 24.152344 25 C 24.570312 25.28125 24.992188 25.558594 25.421875 25.847656 C 25.5625 25.429688 25.703125 25.007812 25.847656 24.578125 Z M 25.847656 24.578125 "/>
<path style=" stroke:none;fill-rule:nonzero;fill:rgb(1.568628%,50.980395%,63.921571%);fill-opacity:1;" d="M 11.015625 19.492188 C 11.996094 19.492188 12.972656 19.492188 13.984375 19.492188 C 13.84375 20.191406 13.703125 20.890625 13.558594 21.609375 C 12.859375 21.75 12.160156 21.890625 11.441406 22.035156 C 11.015625 19.96875 11.015625 19.96875 11.015625 19.492188 Z M 11.015625 19.492188 "/>
<path style=" stroke:none;fill-rule:nonzero;fill:rgb(0.784314%,29.411766%,42.352942%);fill-opacity:1;" d="M 31.78125 27.542969 C 32.199219 27.542969 32.617188 27.542969 33.050781 27.542969 C 33.050781 27.820312 33.050781 28.101562 33.050781 28.390625 C 33.46875 28.53125 33.890625 28.667969 34.320312 28.8125 C 33.820312 29.476562 33.820312 29.476562 33.050781 30.085938 C 31.9375 30.003906 31.9375 30.003906 30.933594 29.660156 C 30.792969 29.382812 30.652344 29.101562 30.507812 28.8125 C 30.789062 28.8125 31.066406 28.8125 31.355469 28.8125 C 31.496094 28.394531 31.636719 27.972656 31.78125 27.542969 Z M 31.78125 27.542969 "/>
<path style=" stroke:none;fill-rule:nonzero;fill:rgb(2.745098%,42.745098%,58.431375%);fill-opacity:1;" d="M 8.050781 25 C 9.097656 25.210938 9.097656 25.210938 10.167969 25.421875 C 10.308594 25.84375 10.449219 26.261719 10.59375 26.695312 C 11.011719 26.972656 11.433594 27.253906 11.863281 27.542969 C 11.722656 27.960938 11.585938 28.382812 11.441406 28.8125 C 10.460938 28.394531 9.484375 27.972656 8.472656 27.542969 C 8.753906 27.402344 9.035156 27.261719 9.320312 27.117188 C 9.320312 26.839844 9.320312 26.558594 9.320312 26.269531 C 8.902344 26.410156 8.484375 26.550781 8.050781 26.695312 C 8.050781 26.136719 8.050781 25.578125 8.050781 25 Z M 8.050781 25 "/>
<path style=" stroke:none;fill-rule:nonzero;fill:rgb(7.843138%,73.725492%,82.352942%);fill-opacity:1;" d="M 10.167969 19.914062 C 10.730469 20.054688 11.289062 20.195312 11.863281 20.339844 C 11.445312 20.546875 11.445312 20.546875 11.015625 20.761719 C 11.550781 21.828125 12.078125 21.980469 13.136719 22.457031 C 12.855469 23.015625 12.578125 23.578125 12.289062 24.152344 C 10.203125 22.328125 10.203125 22.328125 10.035156 20.84375 C 10.082031 20.535156 10.125 20.230469 10.167969 19.914062 Z M 10.167969 19.914062 "/>
<path style=" stroke:none;fill-rule:nonzero;fill:rgb(1.176471%,34.117648%,49.411765%);fill-opacity:1;" d="M 40.679688 24.578125 C 41.515625 24.578125 42.355469 24.578125 43.21875 24.578125 C 43.21875 25.414062 43.21875 26.253906 43.21875 27.117188 C 42.800781 26.980469 42.382812 26.839844 41.949219 26.695312 C 41.386719 26.550781 40.820312 26.40625 40.253906 26.269531 C 40.394531 25.710938 40.535156 25.152344 40.679688 24.578125 Z M 40.679688 24.578125 "/>
<path style=" stroke:none;fill-rule:nonzero;fill:rgb(2.352941%,36.862746%,52.156866%);fill-opacity:1;" d="M 19.066406 19.492188 C 19.347656 19.769531 19.628906 20.050781 19.914062 20.339844 C 21.019531 20.203125 21.019531 20.203125 22.035156 19.914062 C 21.875 20.734375 21.875 20.734375 21.609375 21.609375 C 21.191406 21.820312 21.191406 21.820312 20.761719 22.035156 C 20.761719 22.453125 20.761719 22.871094 20.761719 23.304688 C 20.34375 23.164062 19.921875 23.027344 19.492188 22.882812 C 19.351562 21.761719 19.210938 20.644531 19.066406 19.492188 Z M 19.066406 19.492188 "/>
<path style=" stroke:none;fill-rule:nonzero;fill:rgb(0.392157%,41.176471%,54.901963%);fill-opacity:1;" d="M 4.238281 23.730469 C 5.214844 24.007812 6.195312 24.289062 7.203125 24.578125 C 7.34375 25.136719 7.484375 25.695312 7.628906 26.269531 C 6.648438 26.378906 6.648438 26.378906 5.507812 26.269531 C 4.671875 25.40625 4.238281 24.949219 4.238281 23.730469 Z M 4.238281 23.730469 "/>
<path style=" stroke:none;fill-rule:nonzero;fill:rgb(0.392157%,36.862746%,52.941179%);fill-opacity:1;" d="M 22.457031 22.457031 C 23.578125 22.457031 24.695312 22.457031 25.847656 22.457031 C 25.714844 23.277344 25.714844 23.277344 25.421875 24.152344 C 25.003906 24.292969 24.585938 24.433594 24.152344 24.578125 C 24.152344 24.296875 24.152344 24.015625 24.152344 23.730469 C 23.453125 23.730469 22.753906 23.730469 22.035156 23.730469 C 22.171875 23.308594 22.3125 22.890625 22.457031 22.457031 Z M 22.457031 22.457031 "/>
<path style=" stroke:none;fill-rule:nonzero;fill:rgb(6.27451%,51.764709%,67.058825%);fill-opacity:1;" d="M 43.644531 20.339844 C 45.710938 22.296875 45.710938 22.296875 46.1875 23.730469 C 45.628906 24.289062 45.066406 24.847656 44.492188 25.421875 C 44.003906 23.753906 43.84375 22.0625 43.644531 20.339844 Z M 43.644531 20.339844 "/>
<path style=" stroke:none;fill-rule:nonzero;fill:rgb(0.392157%,63.529414%,74.509805%);fill-opacity:1;" d="M 3.8125 24.152344 C 4.792969 24.992188 5.769531 25.832031 6.78125 26.695312 C 6.640625 26.972656 6.5 27.253906 6.355469 27.542969 C 5.238281 27.121094 4.117188 26.703125 2.964844 26.269531 C 3.246094 25.570312 3.527344 24.871094 3.8125 24.152344 Z M 3.8125 24.152344 "/>
<path style=" stroke:none;fill-rule:nonzero;fill:rgb(4.313726%,58.039218%,73.333335%);fill-opacity:1;" d="M 12.289062 24.578125 C 12.429688 25.972656 12.566406 27.371094 12.710938 28.8125 C 12.433594 28.8125 12.152344 28.8125 11.863281 28.8125 C 11.722656 28.394531 11.585938 27.972656 11.441406 27.542969 C 11.019531 27.261719 10.601562 26.984375 10.167969 26.695312 C 10.167969 25.847656 10.167969 25.847656 10.753906 25.160156 C 11.441406 24.578125 11.441406 24.578125 12.289062 24.578125 Z M 12.289062 24.578125 "/>
<path style=" stroke:none;fill-rule:nonzero;fill:rgb(10.980392%,49.803922%,67.058825%);fill-opacity:1;" d="M 25.421875 28.8125 C 25.421875 29.511719 25.421875 30.210938 25.421875 30.933594 C 25.003906 30.652344 24.585938 30.371094 24.152344 30.085938 C 24.152344 29.804688 24.152344 29.527344 24.152344 29.238281 C 23.453125 29.515625 22.753906 29.796875 22.035156 30.085938 C 22.035156 29.664062 22.035156 29.246094 22.035156 28.8125 C 23.429688 28.347656 24.03125 28.476562 25.421875 28.8125 Z M 25.421875 28.8125 "/>
<path style=" stroke:none;fill-rule:nonzero;fill:rgb(10.980392%,54.509807%,72.941178%);fill-opacity:1;" d="M 31.78125 25 C 32.058594 25.140625 32.339844 25.28125 32.628906 25.421875 C 32.394531 26.855469 32.179688 27.578125 31.355469 28.8125 C 30.9375 28.671875 30.515625 28.535156 30.085938 28.390625 C 30.363281 28.25 30.644531 28.109375 30.933594 27.964844 C 30.835938 27.710938 30.738281 27.460938 30.640625 27.199219 C 30.597656 26.890625 30.554688 26.585938 30.507812 26.269531 C 31.117188 25.53125 31.117188 25.53125 31.78125 25 Z M 31.78125 25 "/>
<path style=" stroke:none;fill-rule:nonzero;fill:rgb(8.235294%,70.19608%,82.352942%);fill-opacity:1;" d="M 18.644531 21.1875 C 19.0625 21.328125 19.484375 21.464844 19.914062 21.609375 C 20.054688 22.308594 20.195312 23.007812 20.339844 23.730469 C 19.082031 23.589844 17.820312 23.449219 16.527344 23.304688 C 17.230469 22.597656 17.9375 21.894531 18.644531 21.1875 Z M 18.644531 21.1875 "/>
<path style=" stroke:none;fill-rule:nonzero;fill:rgb(7.843138%,49.019608%,65.490198%);fill-opacity:1;" d="M 41.949219 28.8125 C 42.929688 28.953125 43.90625 29.09375 44.914062 29.238281 C 44.914062 29.515625 44.914062 29.796875 44.914062 30.085938 C 45.472656 30.222656 46.035156 30.363281 46.609375 30.507812 C 46.078125 30.527344 45.542969 30.542969 44.996094 30.5625 C 44.695312 30.570312 44.394531 30.582031 44.085938 30.589844 C 43.21875 30.507812 43.21875 30.507812 41.949219 29.660156 C 41.949219 29.382812 41.949219 29.101562 41.949219 28.8125 Z M 41.949219 28.8125 "/>
<path style=" stroke:none;fill-rule:nonzero;fill:rgb(3.529412%,39.607844%,54.509807%);fill-opacity:1;" d="M 5.933594 27.542969 C 6.210938 27.683594 6.492188 27.820312 6.78125 27.964844 C 6.640625 28.246094 6.5 28.527344 6.355469 28.8125 C 6.777344 28.953125 7.195312 29.09375 7.628906 29.238281 C 7.90625 29.515625 8.1875 29.796875 8.472656 30.085938 C 7.355469 30.222656 6.238281 30.363281 5.085938 30.507812 C 4.945312 30.089844 4.804688 29.667969 4.660156 29.238281 C 5.082031 29.238281 5.5 29.238281 5.933594 29.238281 C 5.933594 28.679688 5.933594 28.117188 5.933594 27.542969 Z M 5.933594 27.542969 "/>
<path style=" stroke:none;fill-rule:nonzero;fill:rgb(0.784314%,33.333334%,47.843137%);fill-opacity:1;" d="M 35.167969 26.269531 C 36.007812 26.269531 36.847656 26.269531 37.710938 26.269531 C 37.292969 26.480469 37.292969 26.480469 36.863281 26.695312 C 36.585938 27.765625 36.585938 27.765625 36.441406 28.8125 C 35.882812 28.8125 35.320312 28.8125 34.746094 28.8125 C 34.886719 27.972656 35.027344 27.136719 35.167969 26.269531 Z M 35.167969 26.269531 "/>
<path style=" stroke:none;fill-rule:nonzero;fill:rgb(0.392157%,27.058825%,39.607844%);fill-opacity:1;" d="M 45.761719 23.730469 C 46.042969 23.867188 46.320312 24.007812 46.609375 24.152344 C 46.875 25.449219 46.875 25.449219 47.035156 26.695312 C 45.777344 26.433594 45.175781 26.164062 44.066406 25.421875 C 44.628906 25.144531 45.1875 24.863281 45.761719 24.578125 C 45.761719 24.296875 45.761719 24.015625 45.761719 23.730469 Z M 45.761719 23.730469 "/>
<path style=" stroke:none;fill-rule:nonzero;fill:rgb(6.666667%,60.784316%,69.01961%);fill-opacity:1;" d="M 7.203125 21.609375 C 7.621094 21.75 8.042969 21.890625 8.472656 22.035156 C 8.335938 22.59375 8.195312 23.152344 8.050781 23.730469 C 7.070312 23.589844 6.09375 23.449219 5.085938 23.304688 C 6.066406 22.429688 6.066406 22.429688 7.203125 21.609375 Z M 7.203125 21.609375 "/>
<path style=" stroke:none;fill-rule:nonzero;fill:rgb(2.745098%,42.745098%,57.647061%);fill-opacity:1;" d="M 14.832031 21.1875 C 15.25 21.328125 15.667969 21.464844 16.101562 21.609375 C 16.101562 22.167969 16.101562 22.730469 16.101562 23.304688 C 15.261719 23.445312 14.421875 23.585938 13.558594 23.730469 C 13.980469 22.890625 14.398438 22.050781 14.832031 21.1875 Z M 14.832031 21.1875 "/>
<path style=" stroke:none;fill-rule:nonzero;fill:rgb(0.784314%,29.019609%,42.352942%);fill-opacity:1;" d="M 7.203125 30.085938 C 7.738281 30.074219 8.269531 30.066406 8.820312 30.058594 C 9.117188 30.054688 9.417969 30.046875 9.726562 30.042969 C 10.59375 30.085938 10.59375 30.085938 11.863281 30.507812 C 11.863281 30.789062 11.863281 31.066406 11.863281 31.355469 C 11.167969 31.308594 10.46875 31.253906 9.773438 31.195312 C 9.382812 31.167969 8.996094 31.136719 8.59375 31.109375 C 8.117188 31.019531 8.117188 31.019531 7.628906 30.933594 C 7.488281 30.652344 7.347656 30.371094 7.203125 30.085938 Z M 7.203125 30.085938 "/>
<path style=" stroke:none;fill-rule:nonzero;fill:rgb(0.392157%,29.411766%,41.960785%);fill-opacity:1;" d="M 18.21875 23.730469 C 18.640625 23.867188 19.058594 24.007812 19.492188 24.152344 C 19.492188 24.570312 19.492188 24.992188 19.492188 25.421875 C 19.632812 25.703125 19.769531 25.984375 19.914062 26.269531 C 18.9375 26.132812 17.957031 25.992188 16.949219 25.847656 C 17.367188 25.148438 17.789062 24.449219 18.21875 23.730469 Z M 18.21875 23.730469 "/>
<path style=" stroke:none;fill-rule:nonzero;fill:rgb(4.313726%,56.470591%,74.117649%);fill-opacity:1;" d="M 42.371094 22.882812 C 42.511719 23.160156 42.652344 23.441406 42.796875 23.730469 C 43.636719 23.730469 44.472656 23.730469 45.339844 23.730469 C 44.78125 24.289062 44.21875 24.847656 43.644531 25.421875 C 43.503906 25.285156 43.363281 25.144531 43.21875 25 C 42.230469 24.984375 41.242188 24.980469 40.253906 25 C 40.253906 24.71875 40.253906 24.441406 40.253906 24.152344 C 40.953125 24.152344 41.652344 24.152344 42.371094 24.152344 C 42.371094 23.734375 42.371094 23.3125 42.371094 22.882812 Z M 42.371094 22.882812 "/>
<path style=" stroke:none;fill-rule:nonzero;fill:rgb(0.784314%,32.941177%,47.058824%);fill-opacity:1;" d="M 16.527344 29.238281 C 17.613281 30.324219 17.601562 31.132812 17.796875 32.628906 C 17.238281 32.488281 16.679688 32.347656 16.101562 32.203125 C 16.101562 31.503906 16.101562 30.804688 16.101562 30.085938 C 15.820312 29.945312 15.542969 29.804688 15.253906 29.660156 C 15.671875 29.519531 16.09375 29.382812 16.527344 29.238281 Z M 16.527344 29.238281 "/>
<path style=" stroke:none;fill-rule:nonzero;fill:rgb(1.568628%,58.823532%,74.117649%);fill-opacity:1;" d="M 2.117188 27.117188 C 2.398438 27.117188 2.679688 27.117188 2.964844 27.117188 C 2.964844 27.398438 2.964844 27.679688 2.964844 27.964844 C 3.945312 28.246094 4.921875 28.527344 5.933594 28.8125 C 5.933594 28.953125 5.933594 29.09375 5.933594 29.238281 C 4.8125 29.238281 3.695312 29.238281 2.542969 29.238281 C 2.402344 28.539062 2.261719 27.839844 2.117188 27.117188 Z M 2.117188 27.117188 "/>
<path style=" stroke:none;fill-rule:nonzero;fill:rgb(9.019608%,49.803922%,68.235296%);fill-opacity:1;" d="M 13.558594 29.660156 C 14.257812 29.800781 14.957031 29.941406 15.679688 30.085938 C 15.257812 30.292969 15.257812 30.292969 14.832031 30.507812 C 14.691406 30.929688 14.550781 31.347656 14.40625 31.78125 C 13.707031 31.640625 13.007812 31.5 12.289062 31.355469 C 12.289062 31.078125 12.289062 30.796875 12.289062 30.507812 C 12.707031 30.507812 13.128906 30.507812 13.558594 30.507812 C 13.558594 30.230469 13.558594 29.949219 13.558594 29.660156 Z M 13.558594 29.660156 "/>
<path style=" stroke:none;fill-rule:nonzero;fill:rgb(0.392157%,29.411766%,41.960785%);fill-opacity:1;" d="M 25.421875 27.117188 C 24.882812 28.199219 24.40625 28.359375 23.304688 28.8125 C 22.886719 28.8125 22.464844 28.8125 22.035156 28.8125 C 22.035156 28.535156 22.035156 28.253906 22.035156 27.964844 C 22.3125 27.964844 22.59375 27.964844 22.882812 27.964844 C 22.882812 27.6875 22.882812 27.40625 22.882812 27.117188 C 24.152344 26.695312 24.152344 26.695312 25.421875 27.117188 Z M 25.421875 27.117188 "/>
<path style=" stroke:none;fill-rule:nonzero;fill:rgb(0.784314%,32.941177%,46.666667%);fill-opacity:1;" d="M 46.1875 28.390625 C 46.1875 28.667969 46.1875 28.949219 46.1875 29.238281 C 46.464844 29.378906 46.746094 29.515625 47.035156 29.660156 C 46.335938 29.800781 45.636719 29.941406 44.914062 30.085938 C 44.914062 29.804688 44.914062 29.527344 44.914062 29.238281 C 44.496094 29.097656 44.078125 28.957031 43.644531 28.8125 C 44.492188 28.390625 44.492188 28.390625 46.1875 28.390625 Z M 46.1875 28.390625 "/>
<path style=" stroke:none;fill-rule:nonzero;fill:rgb(0.392157%,30.588236%,43.921569%);fill-opacity:1;" d="M 7.203125 27.117188 C 8.785156 27.328125 9.667969 27.488281 11.015625 28.390625 C 11.015625 28.667969 11.015625 28.949219 11.015625 29.238281 C 10.457031 29.238281 9.898438 29.238281 9.320312 29.238281 C 9.320312 28.816406 9.320312 28.398438 9.320312 27.964844 C 8.621094 27.828125 7.921875 27.6875 7.203125 27.542969 C 7.203125 27.402344 7.203125 27.261719 7.203125 27.117188 Z M 7.203125 27.117188 "/>
<path style=" stroke:none;fill-rule:nonzero;fill:rgb(3.529412%,48.235294%,68.235296%);fill-opacity:1;" d="M 39.832031 26.269531 C 40.808594 26.269531 41.789062 26.269531 42.796875 26.269531 C 42.378906 26.480469 42.378906 26.480469 41.949219 26.695312 C 41.949219 26.972656 41.949219 27.253906 41.949219 27.542969 C 41.109375 27.542969 40.269531 27.542969 39.40625 27.542969 C 39.546875 27.121094 39.6875 26.703125 39.832031 26.269531 Z M 39.832031 26.269531 "/>
<path style=" stroke:none;fill-rule:nonzero;fill:rgb(0.784314%,34.509805%,49.411765%);fill-opacity:1;" d="M 27.964844 22.457031 C 29.222656 22.667969 29.222656 22.667969 30.507812 22.882812 C 30.003906 23.515625 30.003906 23.515625 29.238281 24.152344 C 28.097656 24.230469 28.097656 24.230469 27.117188 24.152344 C 27.398438 23.59375 27.679688 23.035156 27.964844 22.457031 Z M 27.964844 22.457031 "/>
<path style=" stroke:none;fill-rule:nonzero;fill:rgb(6.27451%,47.843137%,66.666669%);fill-opacity:1;" d="M 18.644531 26.695312 C 20.558594 26.539062 20.558594 26.539062 21.53125 27.277344 C 22.035156 27.964844 22.035156 27.964844 22.035156 28.8125 C 21.214844 28.65625 21.214844 28.65625 20.339844 28.390625 C 20.199219 28.109375 20.058594 27.832031 19.914062 27.542969 C 19.496094 27.261719 19.078125 26.984375 18.644531 26.695312 Z M 18.644531 26.695312 "/>
<path style=" stroke:none;fill-rule:nonzero;fill:rgb(7.450981%,59.607846%,74.901962%);fill-opacity:1;" d="M 40.253906 20.339844 C 41.09375 20.339844 41.933594 20.339844 42.796875 20.339844 C 42.9375 20.757812 43.078125 21.179688 43.21875 21.609375 C 42.101562 21.46875 40.984375 21.332031 39.832031 21.1875 C 39.96875 20.90625 40.109375 20.628906 40.253906 20.339844 Z M 40.253906 20.339844 "/>
<path style=" stroke:none;fill-rule:nonzero;fill:rgb(0.784314%,47.058824%,64.313728%);fill-opacity:1;" d="M 16.527344 20.339844 C 17.320312 20.445312 17.320312 20.445312 18.21875 20.761719 C 18.75 21.636719 18.75 21.636719 19.066406 22.457031 C 18.648438 22.316406 18.230469 22.179688 17.796875 22.035156 C 17.378906 22.242188 17.378906 22.242188 16.949219 22.457031 C 16.808594 21.757812 16.667969 21.058594 16.527344 20.339844 Z M 16.527344 20.339844 "/>
<path style=" stroke:none;fill-rule:nonzero;fill:rgb(0%,23.921569%,34.901962%);fill-opacity:1;" d="M 3.390625 30.507812 C 4.507812 30.507812 5.628906 30.507812 6.78125 30.507812 C 6.917969 30.929688 7.058594 31.347656 7.203125 31.78125 C 5.621094 31.570312 4.742188 31.410156 3.390625 30.507812 Z M 3.390625 30.507812 "/>
<path style=" stroke:none;fill-rule:nonzero;fill:rgb(5.098039%,50.588238%,69.411767%);fill-opacity:1;" d="M 37.289062 25.421875 C 37.988281 25.5625 38.6875 25.703125 39.40625 25.847656 C 39.40625 26.128906 39.40625 26.40625 39.40625 26.695312 C 38.566406 26.972656 37.730469 27.253906 36.863281 27.542969 C 37.003906 26.84375 37.144531 26.144531 37.289062 25.421875 Z M 37.289062 25.421875 "/>
<path style=" stroke:none;fill-rule:nonzero;fill:rgb(6.666667%,54.509807%,70.588237%);fill-opacity:1;" d="M 15.253906 23.304688 C 15.535156 23.585938 15.8125 23.863281 16.101562 24.152344 C 15.195312 25.058594 14.773438 25.179688 13.558594 25.421875 C 13.558594 24.863281 13.558594 24.304688 13.558594 23.730469 C 14.355469 23.464844 14.355469 23.464844 15.253906 23.304688 Z M 15.253906 23.304688 "/>
<path style=" stroke:none;fill-rule:nonzero;fill:rgb(7.843138%,59.607846%,74.117649%);fill-opacity:1;" d="M 38.136719 22.035156 C 38.136719 22.453125 38.136719 22.871094 38.136719 23.304688 C 37.339844 23.753906 37.339844 23.753906 36.441406 24.152344 C 36.160156 24.011719 35.882812 23.871094 35.59375 23.730469 C 35.59375 23.449219 35.59375 23.167969 35.59375 22.882812 C 37.183594 22.035156 37.183594 22.035156 38.136719 22.035156 Z M 38.136719 22.035156 "/>
<path style=" stroke:none;fill-rule:nonzero;fill:rgb(4.313726%,58.039218%,77.64706%);fill-opacity:1;" d="M 26.269531 22.035156 C 26.832031 22.035156 27.390625 22.035156 27.964844 22.035156 C 27.6875 22.734375 27.40625 23.433594 27.117188 24.152344 C 26.699219 24.011719 26.28125 23.871094 25.847656 23.730469 C 25.988281 23.167969 26.128906 22.609375 26.269531 22.035156 Z M 26.269531 22.035156 "/>
<path style=" stroke:none;fill-rule:nonzero;fill:rgb(1.176471%,47.058824%,66.666669%);fill-opacity:1;" d="M 22.035156 19.914062 C 22.3125 20.195312 22.59375 20.472656 22.882812 20.761719 C 22.722656 21.664062 22.722656 21.664062 22.457031 22.457031 C 21.757812 22.316406 21.058594 22.179688 20.339844 22.035156 C 20.757812 21.753906 21.179688 21.472656 21.609375 21.1875 C 21.75 20.765625 21.890625 20.347656 22.035156 19.914062 Z M 22.035156 19.914062 "/>
</g>
</svg>
